# xmcd
#
# Track frame offsets:
#	150
#	21970
#	44410
#	70760
#	90280
#	108407
#	132502
#	145731
#	169349
#	211893
#	245169
#	261943
#	287717
#	305940
#
# Disc length: 4392 seconds
#
# Revision: 0
# Processed by: cddbd v1.5.2PL0 Copyright (c) Steve Scherf et al.
# Submitted via: audiograbber 1.83.01
#
DISCID=d611260e
DTITLE=Mark Knopfler and Emmylou Harris - Live in verona 
DYEAR=2006
DGENRE=Folk
TTITLE0=Rigt Now
TTITLE1=Red Staggerwing
TTITLE2=Michelangelo
TTITLE3=I Dug Up A Diamond
TTITLE4=Born to Run
TTITLE5=Red Dirt Girl
TTITLE6=Band Introduction
TTITLE7=Done Whith Bonaparte
TTITLE8=Romeo And Juliet
TTITLE9=Sonny Liston
TTITLE10=Belle Star
TTITLE11=This is Us
TTITLE12=Boulder to Birmingham
TTITLE13=All The Roadrunning
EXTD=
EXTT0=
EXTT1=
EXTT2=
EXTT3=
EXTT4=
EXTT5=
EXTT6=
EXTT7=
EXTT8=
EXTT9=
EXTT10=
EXTT11=
EXTT12=
EXTT13=
PLAYORDER=
